<svg xmlns="http://www.w3.org/2000/svg" width="2048" height="2048" viewBox="0 0 2048 2048" version="1.1"><path d="M 997.332 464.254 C 966.873 509.912, 948.103 560.818, 941.351 616.076 C 939.176 633.877, 938.875 676.266, 940.813 692 C 944.003 717.913, 948.678 739.925, 955.625 761.750 C 959.626 774.316, 959.070 773.883, 968.802 772.038 C 971.593 771.508, 987.967 769.040, 1005.188 766.553 C 1022.410 764.066, 1037.929 761.784, 1039.676 761.484 L 1042.852 760.937 1039.881 752.219 C 1035.956 740.698, 1030.580 720.044, 1028.111 707 C 1020.546 667.034, 1020.546 618.966, 1028.111 579 C 1035.042 542.381, 1050.331 500.967, 1067.950 471.085 C 1069.677 468.155, 1070.937 465.603, 1070.748 465.414 C 1070.426 465.092, 1005.961 454.996, 1004.278 455.004 C 1003.850 455.006, 1000.724 459.168, 997.332 464.254 M 333.937 679.733 C 318.847 687.142, 295.106 698.769, 281.181 705.570 L 255.861 717.936 261.791 725.718 C 320.617 802.918, 405.191 858.482, 499.500 881.889 C 534.120 890.481, 564.135 894.003, 602.500 893.976 C 649.544 893.943, 688.121 887.922, 734.250 873.416 C 735.914 872.892, 736 887.159, 736 1163.433 L 736 1454 789.500 1454 L 843 1454 843 1318.434 L 843 1182.869 846.376 1175.563 C 853.022 1161.178, 864.579 1147.722, 877.248 1139.618 C 898.828 1125.814, 928.706 1123.085, 952.777 1132.721 C 961.467 1136.200, 973.143 1143.983, 980.080 1150.920 C 986.915 1157.755, 995.093 1169.959, 997.944 1177.580 C 999.981 1183.025, 1000 1184.297, 1000 1318.538 L 1000 1454 1053.525 1454 L 1107.049 1454 1106.733 1300.750 C 1106.420 1148.674, 1106.401 1147.435, 1104.305 1139 C 1099.575 1119.962, 1094.182 1107.470, 1084.258 1092.563 C 1076.440 1080.819, 1061.867 1065.709, 1051 1058.079 C 1035.473 1047.178, 1015.127 1038.661, 996.558 1035.289 C 984.480 1033.095, 961.487 1033.102, 949.368 1035.301 C 901.238 1044.038, 861.770 1078.199, 845.998 1124.769 L 843.041 1133.500 843.021 961.704 L 843 789.908 785.750 790.298 C 742.226 790.595, 724.784 791.078, 713 792.313 C 678.603 795.918, 631.707 793.643, 594 786.539 C 511.514 771, 434.409 732.589, 372.089 675.992 L 361.374 666.261 333.937 679.733 M 1504.500 670.597 C 1502.300 670.807, 1494.650 671.460, 1487.500 672.049 C 1449.018 675.220, 1401.638 684.793, 1363 697.204 C 1314.740 712.705, 1258.774 739.952, 1217.544 768.017 C 1198.080 781.266, 1160 811.068, 1160 813.053 C 1160 813.445, 1163.037 816.346, 1166.750 819.500 C 1170.463 822.654, 1184.906 835.420, 1198.846 847.867 C 1212.787 860.315, 1224.564 870.638, 1225.017 870.807 C 1225.470 870.976, 1230.039 868.011, 1235.171 864.219 C 1318.689 802.501, 1418.921 764.188, 1527.549 752.461 C 1547.637 750.292, 1604.589 749.388, 1626.094 750.897 C 1679.024 754.610, 1729.327 764.473, 1776.958 780.478 C 1784.360 782.965, 1790.736 785, 1791.126 785 C 1791.516 785, 1788.147 770.521, 1783.639 752.824 L 1775.443 720.649 1768.971 717.738 C 1726.720 698.736, 1667.554 681.868, 1621 675.553 C 1590.919 671.473, 1581.082 670.821, 1545 670.521 C 1524.925 670.353, 1506.700 670.388, 1504.500 670.597 M 1109.039 990.461 C 1088.991 1010.514, 1072.794 1027.100, 1073.044 1027.317 C 1073.295 1027.534, 1078.225 1029.859, 1084 1032.482 C 1167.174 1070.270, 1247.058 1122.386, 1319 1185.793 C 1338.912 1203.343, 1379.657 1244.088, 1397.207 1264 C 1455 1329.572, 1498.712 1394.357, 1536.877 1471 C 1556.377 1510.160, 1573.659 1551.195, 1584.478 1584.021 C 1586.015 1588.685, 1587.386 1592.638, 1587.525 1592.806 C 1587.855 1593.204, 1743.231 1557.102, 1743.849 1556.484 C 1745.051 1555.282, 1730.989 1514.026, 1719.406 1484.771 C 1657.972 1329.599, 1554.685 1194.481, 1420.500 1093.748 C 1343.504 1035.947, 1258.407 991.173, 1166.100 959.896 C 1156.530 956.653, 1147.978 954, 1147.095 954 C 1146.212 954, 1129.087 970.407, 1109.039 990.461" stroke="none" fill="#fcebdb" fill-rule="evenodd"/><path d="M 112.500 0.689 C 83.243 4.481, 58.334 16.700, 37.464 37.499 C 19.453 55.447, 9.193 74.151, 2.300 101.599 C 0.663 108.116, 0.548 159.145, 0.235 1018 C -0.007 1685.099, 0.203 1929.966, 1.025 1936.751 C 6.119 1978.819, 31.920 2015.738, 69.500 2034.735 C 80.327 2040.208, 92.521 2044.453, 103.278 2046.493 C 110.318 2047.829, 215.086 2048, 1024.653 2048 C 1851.113 2048, 1938.818 2047.850, 1945.792 2046.429 C 1999.604 2035.458, 2039.254 1993.596, 2047.545 1939 C 2048.794 1930.776, 2048.989 1807.722, 2048.994 1022.998 C 2049 120.745, 2048.991 116.447, 2047.001 106.003 C 2041.759 78.496, 2030.271 56.319, 2011.500 37.471 C 1996.548 22.457, 1976.293 10.440, 1956.728 4.976 C 1937.647 -0.353, 2005.209 -0.004, 1023.500 0.154 C 524.100 0.234, 114.150 0.475, 112.500 0.689 M 0.498 1024 C 0.498 1524.225, 0.611 1728.862, 0.750 1478.750 C 0.889 1228.637, 0.889 819.362, 0.750 569.250 C 0.611 319.137, 0.498 523.775, 0.498 1024 M 997.332 464.254 C 966.873 509.912, 948.103 560.818, 941.351 616.076 C 939.176 633.877, 938.875 676.266, 940.813 692 C 944.003 717.913, 948.678 739.925, 955.625 761.750 C 959.626 774.316, 959.070 773.883, 968.802 772.038 C 971.593 771.508, 987.967 769.040, 1005.188 766.553 C 1022.410 764.066, 1037.929 761.784, 1039.676 761.484 L 1042.852 760.937 1039.881 752.219 C 1035.956 740.698, 1030.580 720.044, 1028.111 707 C 1020.546 667.034, 1020.546 618.966, 1028.111 579 C 1035.042 542.381, 1050.331 500.967, 1067.950 471.085 C 1069.677 468.155, 1070.937 465.603, 1070.748 465.414 C 1070.426 465.092, 1005.961 454.996, 1004.278 455.004 C 1003.850 455.006, 1000.724 459.168, 997.332 464.254 M 333.937 679.733 C 318.847 687.142, 295.106 698.769, 281.181 705.570 L 255.861 717.936 261.791 725.718 C 320.617 802.918, 405.191 858.482, 499.500 881.889 C 534.120 890.481, 564.135 894.003, 602.500 893.976 C 649.544 893.943, 688.121 887.922, 734.250 873.416 C 735.914 872.892, 736 887.159, 736 1163.433 L 736 1454 789.500 1454 L 843 1454 843 1318.434 L 843 1182.869 846.376 1175.563 C 853.022 1161.178, 864.579 1147.722, 877.248 1139.618 C 898.828 1125.814, 928.706 1123.085, 952.777 1132.721 C 961.467 1136.200, 973.143 1143.983, 980.080 1150.920 C 986.915 1157.755, 995.093 1169.959, 997.944 1177.580 C 999.981 1183.025, 1000 1184.297, 1000 1318.538 L 1000 1454 1053.525 1454 L 1107.049 1454 1106.733 1300.750 C 1106.420 1148.674, 1106.401 1147.435, 1104.305 1139 C 1099.575 1119.962, 1094.182 1107.470, 1084.258 1092.563 C 1076.440 1080.819, 1061.867 1065.709, 1051 1058.079 C 1035.473 1047.178, 1015.127 1038.661, 996.558 1035.289 C 984.480 1033.095, 961.487 1033.102, 949.368 1035.301 C 901.238 1044.038, 861.770 1078.199, 845.998 1124.769 L 843.041 1133.500 843.021 961.704 L 843 789.908 785.750 790.298 C 742.226 790.595, 724.784 791.078, 713 792.313 C 678.603 795.918, 631.707 793.643, 594 786.539 C 511.514 771, 434.409 732.589, 372.089 675.992 L 361.374 666.261 333.937 679.733 M 1504.500 670.597 C 1502.300 670.807, 1494.650 671.460, 1487.500 672.049 C 1449.018 675.220, 1401.638 684.793, 1363 697.204 C 1314.740 712.705, 1258.774 739.952, 1217.544 768.017 C 1198.080 781.266, 1160 811.068, 1160 813.053 C 1160 813.445, 1163.037 816.346, 1166.750 819.500 C 1170.463 822.654, 1184.906 835.420, 1198.846 847.867 C 1212.787 860.315, 1224.564 870.638, 1225.017 870.807 C 1225.470 870.976, 1230.039 868.011, 1235.171 864.219 C 1318.689 802.501, 1418.921 764.188, 1527.549 752.461 C 1547.637 750.292, 1604.589 749.388, 1626.094 750.897 C 1679.024 754.610, 1729.327 764.473, 1776.958 780.478 C 1784.360 782.965, 1790.736 785, 1791.126 785 C 1791.516 785, 1788.147 770.521, 1783.639 752.824 L 1775.443 720.649 1768.971 717.738 C 1726.720 698.736, 1667.554 681.868, 1621 675.553 C 1590.919 671.473, 1581.082 670.821, 1545 670.521 C 1524.925 670.353, 1506.700 670.388, 1504.500 670.597 M 1109.039 990.461 C 1088.991 1010.514, 1072.794 1027.100, 1073.044 1027.317 C 1073.295 1027.534, 1078.225 1029.859, 1084 1032.482 C 1167.174 1070.270, 1247.058 1122.386, 1319 1185.793 C 1338.912 1203.343, 1379.657 1244.088, 1397.207 1264 C 1455 1329.572, 1498.712 1394.357, 1536.877 1471 C 1556.377 1510.160, 1573.659 1551.195, 1584.478 1584.021 C 1586.015 1588.685, 1587.386 1592.638, 1587.525 1592.806 C 1587.855 1593.204, 1743.231 1557.102, 1743.849 1556.484 C 1745.051 1555.282, 1730.989 1514.026, 1719.406 1484.771 C 1657.972 1329.599, 1554.685 1194.481, 1420.500 1093.748 C 1343.504 1035.947, 1258.407 991.173, 1166.100 959.896 C 1156.530 956.653, 1147.978 954, 1147.095 954 C 1146.212 954, 1129.087 970.407, 1109.039 990.461" stroke="none" fill="#f78d07" fill-rule="evenodd"/></svg>